<svg xmlns="http://www.w3.org/2000/svg" width="24" height="24" viewBox="0 0 24 24"><defs><style>.a{fill:none;}</style></defs><g transform="translate(-0.146 -0.146)"><rect class="a" width="24" height="24" transform="translate(0.146 0.146)"/><g transform="translate(5.062 5.04)"><path d="M18.5,17.065l5.365-5.314a1.063,1.063,0,0,0,.1-1.366.962.962,0,0,0-1.518-.1l-5.365,5.365-5.365-5.365a.962.962,0,0,0-1.518.1,1.063,1.063,0,0,0,.1,1.366l5.365,5.314L10.3,22.379a1.063,1.063,0,0,0-.1,1.366.962.962,0,0,0,1.518.1l5.365-5.365,5.365,5.365a.962.962,0,0,0,1.518-.1,1.063,1.063,0,0,0-.1-1.366Z" transform="translate(-10.001 -9.959)"/></g></g></svg>