<svg xmlns="http://www.w3.org/2000/svg" width="160" height="176" viewBox="0 0 160 176"><defs><style>.a{fill:#dedede;}.a,.b{fill-rule:evenodd;}.b{fill:#1a1a1a;}</style></defs><g transform="translate(-267.874 -236.93)"><path class="a" d="M280.227,403.97c2.052-15.095,4.44-29.934,4.983-46.307.108-3.737.075-7.614-.042-11.584-1.261-12.014-3.19-23.89-5.482-29.616-3.478-8.679-8.108-15.631-10.666-25.229-5.958-22.335,13.1-32.838,16.141-36.053,12.392-13.1,22.818-15.036,37.824-16.715,20.955-2.347,54.005-5,66.324,16.778,5.839,10.321,19.457,15.831,27.56,18.508a7.809,7.809,0,0,1,8.508,1.787,9.67,9.67,0,0,1,1.646,10.466c-.06.767-.161,1.555-.3,2.355-2.471,13.763-12.08,8.972-18.576,18.713a20.453,20.453,0,0,1-4.989,4.774c-8.821,6.374-13.343,5.094-23.143,8.5-13.685,4.757-23.043,13.3-21.018,32.774,3.755,5.932,7.932,11.291,9.714,15.08,4.2,8.944,7.395,22.522,9.151,35.768h-.216a78.532,78.532,0,0,1,1.591,8.961H279.392q.533-4.51,1.143-8.961Z" transform="translate(0 0)"/><path class="b" d="M366.016,251.611c-11.394-4.9-18.927,9.151-12.593,16.968,3.227,3.985,10.437,4.8,14.6,2.072,3.993-2.612,4.643-6.047,4.245-9.916-.383-3.719-1.736-7.181-6.254-9.124m-91.785,18.181c-1.894,4.715-.736,8.319.242,11.821,1.476,5.285,4.049,10.047,7.015,15.713.9,1.727,1.6,3.067,2.127,4.1,3.051,5.952,4.074,4.832,3.062-1.162-1.177-6.989-2.539-14.9-5.293-20.518-1.923-3.919-2.4-8.214,1.562-10.274,2.272-1.18,4.114-.453,6.966,1.46,3.547,2.382,6.514,3.282,6.725-2.565.075-2.077-2.074-4.892-5.019-6.259-6.151-2.855-14.853,1.363-17.388,7.681M396.373,285.97a1.5,1.5,0,1,1-1.774,1.48,1.648,1.648,0,0,1,1.774-1.48m.943-6.956a1.553,1.553,0,1,1-1.83,1.528,1.7,1.7,0,0,1,1.83-1.528m-7.287-.9a1.624,1.624,0,1,1-1.915,1.6,1.778,1.778,0,0,1,1.915-1.6m22.928-3.874c2.777-3.192,7.675-1.165,7.77,3.905.043,2.284-2.489,5.53-4.73,6.961-4.16,2.655-6.641-6.736-3.039-10.866m-12.948,25.985c-1.486,1.012-2.883,5.757-8.842,4.372-2.895-.673-14.624-8.611-16.057-10.332l5.377.862c4.439.418,7.705,3.362,10.719,4.6,2.62,1.077,4.969.5,8.8.5m-36.373-43.718.093,4.435,3.381-.18c1.429,2.942-3.52,10.164-10.825,2.944.154-6.042,4.23-9.892,7.352-7.2m6.776,8.117c-3.2,10.248-21.142,5.856-17.207-6.179,3.492-10.683,21.135-6.41,17.207,6.179m-23.707,12.521c-8.5-3.467,1.608-8.077-4.352-12.739a5.3,5.3,0,0,1-2.593-4.5,15.444,15.444,0,0,1,5.851-12.2c4.595-3.645,14.667-4.882,21.663.323,4.207,3.132,14.908,12.366,13.041,18.028-2.989,9.064-25.338,14.463-33.609,11.091" transform="translate(3.562 5.076)"/></g></svg>