<svg width="22" height="22" viewBox="0 0 22 22" fill="none" xmlns="http://www.w3.org/2000/svg">
<path d="M21.3149 2.66731C21.4433 2.79618 21.5155 2.97072 21.5155 3.15268C21.5155 3.33465 21.4433 3.50919 21.3149 3.63806L19.8807 5.07356L17.1307 2.32356L18.5649 0.888058C18.6938 0.759172 18.8686 0.686768 19.0509 0.686768C19.2332 0.686768 19.4081 0.759172 19.537 0.888058L21.3149 2.66593V2.66731ZM18.9086 6.04431L16.1586 3.29431L6.79073 12.6636C6.71506 12.7392 6.65809 12.8315 6.62436 12.9331L5.51748 16.2523C5.49741 16.3128 5.49456 16.3777 5.50925 16.4398C5.52394 16.5018 5.5556 16.5585 5.60068 16.6036C5.64576 16.6487 5.70249 16.6803 5.76453 16.695C5.82657 16.7097 5.89147 16.7069 5.95198 16.6868L9.27123 15.5799C9.37266 15.5466 9.46493 15.4901 9.54073 15.4149L18.9086 6.04431Z" fill="currentColor"/>
<path fill-rule="evenodd" clip-rule="evenodd" d="M1.375 18.5624C1.375 19.1094 1.5923 19.6341 1.97909 20.0208C2.36589 20.4076 2.89049 20.6249 3.4375 20.6249H18.5625C19.1095 20.6249 19.6341 20.4076 20.0209 20.0208C20.4077 19.6341 20.625 19.1094 20.625 18.5624V10.3124C20.625 10.1301 20.5526 9.95523 20.4236 9.8263C20.2947 9.69737 20.1198 9.62494 19.9375 9.62494C19.7552 9.62494 19.5803 9.69737 19.4514 9.8263C19.3224 9.95523 19.25 10.1301 19.25 10.3124V18.5624C19.25 18.7448 19.1776 18.9196 19.0486 19.0486C18.9197 19.1775 18.7448 19.2499 18.5625 19.2499H3.4375C3.25516 19.2499 3.0803 19.1775 2.95136 19.0486C2.82243 18.9196 2.75 18.7448 2.75 18.5624V3.43744C2.75 3.2551 2.82243 3.08023 2.95136 2.9513C3.0803 2.82237 3.25516 2.74994 3.4375 2.74994H12.375C12.5573 2.74994 12.7322 2.67751 12.8611 2.54858C12.9901 2.41964 13.0625 2.24478 13.0625 2.06244C13.0625 1.8801 12.9901 1.70523 12.8611 1.5763C12.7322 1.44737 12.5573 1.37494 12.375 1.37494H3.4375C2.89049 1.37494 2.36589 1.59224 1.97909 1.97903C1.5923 2.36583 1.375 2.89043 1.375 3.43744V18.5624Z" fill="currentColor"/>
</svg>
