<svg width="96" height="117" viewBox="0 0 96 117" fill="none" xmlns="http://www.w3.org/2000/svg">
<g filter="url(#filter0_d)">
<path d="M54.3153 29.5779C44.1724 19.474 27.7439 19.474 17.601 29.5779C8.45816 38.6856 7.45816 55.9048 15.1724 66.151L35.8867 96.0356L56.601 66.151C64.4582 55.9048 63.4582 38.6856 54.3153 29.5779Z" fill="#E85454"/>
<path d="M20.8867 45.2318H30.8867V35.4126H41.1724V45.2318H51.1724V55.478H41.1724V65.1549H31.1724V55.478H20.8867V45.2318Z" fill="white"/>
<path d="M74.4545 14.672C77.79 14.672 80.4942 11.3876 80.4942 7.33603C80.4942 3.2844 79.6064 0 74.4545 0C69.3026 0 68.4146 3.2844 68.4146 7.33603C68.4146 11.3876 71.1188 14.672 74.4545 14.672Z" fill="#E85454"/>
<path d="M85.8489 25.5769C85.7371 18.519 84.8153 16.5079 77.7616 15.2349C77.7616 15.2349 76.7687 16.5001 74.4544 16.5001C72.1401 16.5001 71.1471 15.2349 71.1471 15.2349C64.1703 16.494 63.1925 18.4753 63.0639 25.3476C63.0534 25.9088 63.0485 25.9383 63.0466 25.8731C63.0471 25.9952 63.0476 26.2209 63.0476 26.6146C63.0476 26.6146 64.7269 30 74.4544 30C84.1818 30 85.8613 26.6146 85.8613 26.6146C85.8613 26.3617 85.8615 26.1858 85.8617 26.0661C85.8598 26.1064 85.8561 26.0283 85.8489 25.5769Z" fill="#E85454"/>
</g>
<defs>
<filter id="filter0_d" x="0" y="0" width="95.8617" height="116.036" filterUnits="userSpaceOnUse" color-interpolation-filters="sRGB">
<feFlood flood-opacity="0" result="BackgroundImageFix"/>
<feColorMatrix in="SourceAlpha" type="matrix" values="0 0 0 0 0 0 0 0 0 0 0 0 0 0 0 0 0 0 127 0"/>
<feOffset dy="10"/>
<feGaussianBlur stdDeviation="5"/>
<feColorMatrix type="matrix" values="0 0 0 0 0 0 0 0 0 0 0 0 0 0 0 0 0 0 0.25 0"/>
<feBlend mode="normal" in2="BackgroundImageFix" result="effect1_dropShadow"/>
<feBlend mode="normal" in="SourceGraphic" in2="effect1_dropShadow" result="shape"/>
</filter>
</defs>
</svg>
