<svg width="69" height="86" viewBox="0 0 69 86" fill="none" xmlns="http://www.w3.org/2000/svg">
<g filter="url(#filter0_d)">
<path d="M39.0207 21.3001C31.9207 14.2001 20.4207 14.2001 13.3207 21.3001C6.92071 27.7001 6.22071 39.8001 11.6207 47.0001L26.1207 68.0001L40.6207 47.0001C46.1207 39.8001 45.4207 27.7001 39.0207 21.3001Z" fill="#4734B5"/>
<path d="M19 26V47.1" stroke="white" stroke-miterlimit="10"/>
<path d="M26.6 26V47.1" stroke="white" stroke-miterlimit="10"/>
<path d="M34.6 26V47.1" stroke="white" stroke-miterlimit="10"/>
<path d="M37.9 29H15" stroke="white" stroke-miterlimit="10"/>
<path d="M37.9 43.5H15" stroke="white" stroke-miterlimit="10"/>
<path d="M37.9 36.5H15" stroke="white" stroke-miterlimit="10"/>
<path d="M52.5 10.2704C54.8348 10.2704 56.7278 7.9713 56.7278 5.13522C56.7278 2.29908 56.1063 0 52.5 0C48.8937 0 48.2721 2.29908 48.2721 5.13522C48.2721 7.9713 50.165 10.2704 52.5 10.2704Z" fill="#4734B5"/>
<path d="M44.5145 18.1113C44.5138 17.9384 44.5131 18.0626 44.5145 18.1113V18.1113Z" fill="#4734B5"/>
<path d="M60.485 18.2464C60.4873 18.1991 60.4858 17.918 60.485 18.2464V18.2464Z" fill="#4734B5"/>
<path d="M60.4761 17.904C60.3978 12.9635 59.7525 11.5557 54.815 10.6646C54.815 10.6646 54.1199 11.5502 52.4999 11.5502C50.8799 11.5502 50.1848 10.6646 50.1848 10.6646C45.3011 11.546 44.6166 12.9328 44.5266 17.7435C44.5192 18.1363 44.5158 18.1569 44.5145 18.1113C44.5148 18.1968 44.5151 18.3548 44.5151 18.6304C44.5151 18.6304 45.6906 21.0002 52.4999 21.0002C59.3091 21.0002 60.4847 18.6304 60.4847 18.6304C60.4847 18.4533 60.4848 18.3302 60.485 18.2465C60.4837 18.2747 60.4811 18.22 60.4761 17.904Z" fill="#4734B5"/>
</g>
<defs>
<filter id="filter0_d" x="0" y="0" width="68.4863" height="86.0001" filterUnits="userSpaceOnUse" color-interpolation-filters="sRGB">
<feFlood flood-opacity="0" result="BackgroundImageFix"/>
<feColorMatrix in="SourceAlpha" type="matrix" values="0 0 0 0 0 0 0 0 0 0 0 0 0 0 0 0 0 0 127 0"/>
<feOffset dy="10"/>
<feGaussianBlur stdDeviation="4"/>
<feColorMatrix type="matrix" values="0 0 0 0 0 0 0 0 0 0 0 0 0 0 0 0 0 0 0.25 0"/>
<feBlend mode="normal" in2="BackgroundImageFix" result="effect1_dropShadow"/>
<feBlend mode="normal" in="SourceGraphic" in2="effect1_dropShadow" result="shape"/>
</filter>
</defs>
</svg>
