<svg width="53" height="71" viewBox="0 0 53 71" fill="none" xmlns="http://www.w3.org/2000/svg">
<g filter="url(#filter0_d)">
<path d="M39.0207 5.325C31.9207 -1.775 20.4207 -1.775 13.3207 5.325C6.92071 11.725 6.22071 23.825 11.6207 31.025L26.1207 52.025L40.6207 31.025C46.1207 23.825 45.4207 11.725 39.0207 5.325Z" fill="#1BA3B4"/>
<path d="M30.5206 14.9248H26.7206V18.7248H30.5206V14.9248Z" fill="white"/>
<path d="M25.7207 10.2246H21.9207V13.9246H25.7207V10.2246Z" fill="white"/>
<path d="M25.7207 14.9248H21.9207V18.7248H25.7207V14.9248Z" fill="white"/>
<path d="M30.5206 10.2246H26.7206V13.9246H30.5206V10.2246Z" fill="white"/>
<path d="M17.5206 6.32471V33.5247H34.8206V6.32471H17.5206ZM31.4206 19.2247V19.7247H20.9206V19.2247V9.62471V9.22471H31.4206V9.62471V19.2247Z" fill="white"/>
</g>
<defs>
<filter id="filter0_d" x="0" y="0" width="52.3248" height="70.025" filterUnits="userSpaceOnUse" color-interpolation-filters="sRGB">
<feFlood flood-opacity="0" result="BackgroundImageFix"/>
<feColorMatrix in="SourceAlpha" type="matrix" values="0 0 0 0 0 0 0 0 0 0 0 0 0 0 0 0 0 0 127 0"/>
<feOffset dy="10"/>
<feGaussianBlur stdDeviation="4"/>
<feColorMatrix type="matrix" values="0 0 0 0 0 0 0 0 0 0 0 0 0 0 0 0 0 0 0.25 0"/>
<feBlend mode="normal" in2="BackgroundImageFix" result="effect1_dropShadow"/>
<feBlend mode="normal" in="SourceGraphic" in2="effect1_dropShadow" result="shape"/>
</filter>
</defs>
</svg>
