<svg width="72" height="95" viewBox="0 0 72 95" fill="none" xmlns="http://www.w3.org/2000/svg">
<g filter="url(#filter0_d)">
<path d="M54.3153 7.57788C44.1724 -2.52596 27.7439 -2.52596 17.601 7.57788C8.45816 16.6856 7.45816 33.9048 15.1724 44.151L35.8867 74.0356L56.601 44.151C64.4582 33.9048 63.4582 16.6856 54.3153 7.57788Z" fill="#27B9CB"/>
<path d="M42.1723 21.2393H36.7437V26.6469H42.1723V21.2393Z" fill="white"/>
<path d="M35.3151 14.5508H29.8865V19.8162H35.3151V14.5508Z" fill="white"/>
<path d="M35.3151 21.2393H29.8865V26.6469H35.3151V21.2393Z" fill="white"/>
<path d="M42.1723 14.5508H36.7437V19.8162H42.1723V14.5508Z" fill="white"/>
<path d="M23.6008 9.00098V47.7087H48.3151V9.00098H23.6008ZM43.458 27.3587V28.0702H28.458V27.3587V13.6971V13.1279H43.458V13.6971V27.3587Z" fill="white"/>
</g>
<defs>
<filter id="filter0_d" x="0" y="0" width="71.8926" height="94.0356" filterUnits="userSpaceOnUse" color-interpolation-filters="sRGB">
<feFlood flood-opacity="0" result="BackgroundImageFix"/>
<feColorMatrix in="SourceAlpha" type="matrix" values="0 0 0 0 0 0 0 0 0 0 0 0 0 0 0 0 0 0 127 0"/>
<feOffset dy="10"/>
<feGaussianBlur stdDeviation="5"/>
<feColorMatrix type="matrix" values="0 0 0 0 0 0 0 0 0 0 0 0 0 0 0 0 0 0 0.25 0"/>
<feBlend mode="normal" in2="BackgroundImageFix" result="effect1_dropShadow"/>
<feBlend mode="normal" in="SourceGraphic" in2="effect1_dropShadow" result="shape"/>
</filter>
</defs>
</svg>
