<svg width="72" height="95" viewBox="0 0 72 95" fill="none" xmlns="http://www.w3.org/2000/svg">
<g filter="url(#filter0_d)">
<path d="M54.3153 7.57788C44.1724 -2.52596 27.7439 -2.52596 17.601 7.57788C8.45816 16.6856 7.45816 33.9048 15.1724 44.151L35.8867 74.0356L56.601 44.151C64.4582 33.9048 63.4582 16.6856 54.3153 7.57788Z" fill="#C81C97"/>
<path d="M45.3152 47.9931C39.7437 48.7047 33.8866 47.8508 28.8866 45.4316C26.8866 44.4354 25.0294 43.297 23.3152 41.7316C19.7437 38.3162 17.6009 33.4777 17.7437 28.497C17.7437 26.5047 18.1723 24.5124 18.7437 22.6624C19.8866 18.5354 22.1723 14.4085 25.8866 12.1316C29.3152 9.99697 33.8866 9.85467 37.7437 11.1354C41.6009 12.4162 44.7437 15.4047 46.8866 18.82C48.7437 21.8085 49.8866 25.3662 49.6009 28.9239C49.3151 32.4816 47.3151 35.897 44.1723 37.4624C42.8866 38.1739 41.3151 38.4585 39.7437 38.7431C37.1723 39.17 34.458 39.17 31.8866 38.3162C27.1723 36.7508 24.0294 32.0547 23.6009 27.0739C23.1723 22.0931 25.1723 17.2547 28.458 13.5547C31.0294 10.5662 34.6009 8.28928 38.6009 8.14697C41.0294 8.14697 43.458 9.00082 45.6009 10.2816C47.7437 11.5624 49.6009 13.27 51.3151 14.9777" stroke="white" stroke-miterlimit="10"/>
<path d="M44.1724 19.9585L52.1724 22.6623" stroke="white" stroke-miterlimit="10"/>
<path d="M46.8867 25.6511L49.3153 17.5396" stroke="white" stroke-miterlimit="10"/>
<path d="M31.7437 35.6123L38.458 40.7354" stroke="white" stroke-miterlimit="10"/>
<path d="M32.458 41.8737L37.458 35.043" stroke="white" stroke-miterlimit="10"/>
<path d="M20.7438 25.3662L27.4581 30.4893" stroke="white" stroke-miterlimit="10"/>
<path d="M21.4581 31.6279L26.4581 24.6548" stroke="white" stroke-miterlimit="10"/>
<path d="M19.6009 12.8433L22.7437 20.5279" stroke="white" stroke-miterlimit="10"/>
<path d="M17.0295 18.5355L24.8867 15.1201" stroke="white" stroke-miterlimit="10"/>
<path d="M20.0295 41.3047L28.0295 43.7239" stroke="white" stroke-miterlimit="10"/>
<path d="M22.8867 46.8544L25.0295 38.6006" stroke="white" stroke-miterlimit="10"/>
</g>
<defs>
<filter id="filter0_d" x="0" y="0" width="71.8926" height="94.0356" filterUnits="userSpaceOnUse" color-interpolation-filters="sRGB">
<feFlood flood-opacity="0" result="BackgroundImageFix"/>
<feColorMatrix in="SourceAlpha" type="matrix" values="0 0 0 0 0 0 0 0 0 0 0 0 0 0 0 0 0 0 127 0"/>
<feOffset dy="10"/>
<feGaussianBlur stdDeviation="5"/>
<feColorMatrix type="matrix" values="0 0 0 0 0 0 0 0 0 0 0 0 0 0 0 0 0 0 0.25 0"/>
<feBlend mode="normal" in2="BackgroundImageFix" result="effect1_dropShadow"/>
<feBlend mode="normal" in="SourceGraphic" in2="effect1_dropShadow" result="shape"/>
</filter>
</defs>
</svg>
