<svg width="29" height="92" viewBox="0 0 29 92" fill="white" xmlns="http://www.w3.org/2000/svg">
<path fill-rule="evenodd" clip-rule="evenodd" d="M3.86454 6.2821C3.86454 4.58694 5.2561 3.19093 6.94587 3.19093C8.63563 3.19093 10.0272 4.58694 10.0272 6.2821C10.0272 7.97726 8.63563 9.37328 6.94587 9.37328C5.2561 9.37328 3.86454 8.07697 3.86454 6.2821ZM18.973 50.1568C18.973 48.4616 20.3646 47.0656 22.0543 47.0656C23.7441 47.0656 25.1357 48.4616 25.1357 50.1568C25.1357 51.852 23.7441 53.248 22.0543 53.248C20.3646 53.248 18.973 51.852 18.973 50.1568ZM15.8917 50.1568C15.8917 46.6668 18.6748 43.8747 22.1537 43.8747C25.6327 43.8747 28.4158 46.6668 28.4158 50.1568C28.4158 53.6468 25.6327 56.4389 22.1537 56.4389C18.6748 56.4389 15.8917 53.6468 15.8917 50.1568ZM22.0543 60.6269C21.2592 60.6269 20.6628 60.8263 20.1658 61.3249C19.6688 61.8235 19.47 62.4218 19.47 63.3192H24.5393C24.5393 62.4218 24.3405 61.8235 23.9429 61.3249C23.4459 60.8263 22.8495 60.6269 22.0543 60.6269ZM22.0543 69.1027C22.8495 69.1027 23.4459 68.9033 23.9429 68.4047C24.3405 67.9061 24.5393 67.3078 24.5393 66.4104H19.47C19.47 67.3078 19.6688 67.9061 20.1658 68.4047C20.6628 68.9033 21.2592 69.1027 22.0543 69.1027ZM28.1176 73.889V76.9802H23.3465V81.3677H28.1176V84.4588H16.0905V81.3677H20.464V76.9802H16.0905V73.889H28.1176ZM28.1176 87.0514V90.1426H16.0905V87.0514H28.1176ZM3.56634 20.3419H5.6537V19.2451C5.6537 18.8462 5.5543 18.5471 5.3555 18.3476C5.15671 18.1482 4.85851 18.0485 4.56032 18.0485C4.26213 18.0485 3.96393 18.1482 3.76514 18.3476C3.56634 18.5471 3.46694 18.8462 3.46694 19.2451V20.3419H3.56634ZM8.23804 20.3419H10.3254V17.9488C10.3254 17.5499 10.226 17.2508 10.0272 17.0513C9.82841 16.8519 9.62961 16.7522 9.23202 16.7522C8.83443 16.7522 8.63563 16.8519 8.43684 17.0513C8.23804 17.2508 8.13864 17.5499 8.13864 17.9488V20.3419H8.23804ZM0.981999 18.9459C0.981999 18.3476 1.0814 17.8491 1.28019 17.3505C1.47899 16.8519 1.67778 16.4531 1.97598 16.0542C2.27417 15.6553 2.67176 15.3562 3.06935 15.1568C3.46694 14.9573 3.96393 14.8576 4.56032 14.8576C5.3555 14.8576 6.05129 15.057 6.54828 15.5556C6.74707 14.9573 7.14466 14.4587 7.64165 14.0599C8.13864 13.661 8.73503 13.5613 9.43081 13.5613C9.9278 13.5613 10.4248 13.661 10.9218 13.8605C11.3194 14.0599 11.717 14.359 12.0152 14.7579C12.3134 15.1568 12.6115 15.5556 12.7109 16.0542C12.9097 16.5528 13.0091 17.0514 13.0091 17.6496L13.0091 23.3334H0.981999L0.981999 18.9459ZM3.76514 24.7294L3.76514 28.3192H12.9097V31.4103H3.76514V35.0001H0.981999L0.981999 24.6297H3.76514V24.7294ZM10.1266 56.738V52.7494H3.76514L3.76514 55.0428L10.1266 56.738ZM13.0091 61.2252H10.226V59.9289L0.981999 57.5357L0.981999 49.5585H10.1266V48.2622H12.9097C13.0091 52.6497 13.0091 56.9374 13.0091 61.2252ZM13.0091 62.8206V65.9118H0.981999L0.981999 62.8206H13.0091ZM13.0091 68.4047V71.4959H3.76514V73.7893L12.9097 76.2822V79.5728L0.981999 76.2822L0.981999 68.305H13.0091V68.4047ZM0.783203 85.456C0.783203 83.2622 1.87658 81.3677 3.56634 80.2708L5.2561 82.8634C4.46092 83.4617 3.86454 84.3591 3.86454 85.456C3.86454 87.1511 5.2561 88.5472 6.94587 88.5472C8.63563 88.5472 10.0272 87.1511 10.0272 85.456C10.0272 84.3591 9.53021 83.4617 8.63563 82.8634L10.3254 80.2708C12.0152 81.3677 13.1085 83.2622 13.1085 85.456C13.1085 88.946 10.3254 91.738 6.84647 91.738C3.56634 91.738 0.783203 88.946 0.783203 85.456ZM0.783203 41.1824C0.783203 38.9887 1.87658 37.0941 3.56634 35.9972L5.2561 38.5898C4.46092 39.1881 3.86454 40.0856 3.86454 41.1824C3.86454 42.8776 5.2561 44.2736 6.94587 44.2736C8.63563 44.2736 10.0272 42.8776 10.0272 41.1824C10.0272 40.0856 9.53021 39.1881 8.63563 38.5898L10.3254 35.9972C12.0152 37.0941 13.1085 38.9887 13.1085 41.1824C13.1085 44.6725 10.3254 47.4645 6.84647 47.4645C3.56634 47.3648 0.783203 44.5727 0.783203 41.1824ZM16.7863 63.3192C16.7863 62.5215 16.8857 61.7238 17.1838 61.0258C17.3826 60.3278 17.7802 59.7295 18.1778 59.2309C18.5754 58.7323 19.1718 58.3334 19.7682 58.0343C20.3646 57.7352 21.1598 57.6354 21.9549 57.6354C22.7501 57.6354 23.4459 57.7352 24.1417 58.0343C24.8375 58.2337 25.3345 58.6326 25.8315 59.2309C26.3284 59.7295 26.6266 60.3278 26.8254 61.0258C27.0242 61.7238 27.223 62.5215 27.223 63.3192H28.714V66.4104H27.223C27.223 67.2081 27.1236 68.0058 26.8254 68.7038C26.6266 69.4018 26.229 70.0001 25.8315 70.4987C25.4339 70.9973 24.8375 71.3961 24.2411 71.6953C23.6447 71.9944 22.8495 72.0941 22.0543 72.0941C21.2592 72.0941 20.5634 71.9944 19.8676 71.6953C19.2712 71.3961 18.6748 70.9973 18.2772 70.4987C17.8796 70.0001 17.482 69.4018 17.2832 68.7038C17.0844 68.0058 16.8857 67.2081 16.8857 66.4104H15.4941V63.3192H16.7863ZM0.783203 6.2821C0.783203 2.79207 3.56634 5.34058e-05 7.04527 5.34058e-05C10.5242 5.34058e-05 13.3073 2.79207 13.3073 6.2821C13.3073 9.77213 10.5242 12.5642 7.04527 12.5642C3.56634 12.5642 0.783203 9.77213 0.783203 6.2821Z" />
</svg>
