<svg width="85" height="85" viewBox="0 0 85 85" fill="none" xmlns="http://www.w3.org/2000/svg">
<g clip-path="url(#clip0_2232_34560)">
<path d="M22.5781 48.4766H26.5625V44.4922H22.5781V48.4766ZM28.5547 52.4609H20.5859C19.4836 52.4609 18.5938 51.5711 18.5938 50.4688V42.5C18.5938 41.3977 19.4836 40.5078 20.5859 40.5078H28.5547C29.657 40.5078 30.5469 41.3977 30.5469 42.5V50.4688C30.5469 51.5711 29.657 52.4609 28.5547 52.4609Z" fill="#231F20"/>
<path d="M22.5781 48.4766H26.5625V44.4922H22.5781V48.4766ZM28.5547 52.4609H20.5859C19.4836 52.4609 18.5938 51.5711 18.5938 50.4688V42.5C18.5938 41.3977 19.4836 40.5078 20.5859 40.5078H28.5547C29.657 40.5078 30.5469 41.3977 30.5469 42.5V50.4688C30.5469 51.5711 29.657 52.4609 28.5547 52.4609Z" fill="#E94236"/>
<path d="M28.5547 20.5859H20.5859C19.4836 20.5859 18.5938 19.6961 18.5938 18.5938V10.625C18.5938 9.52266 19.4836 8.63281 20.5859 8.63281H28.5547C29.657 8.63281 30.5469 9.52266 30.5469 10.625V18.5938C30.5469 19.6961 29.657 20.5859 28.5547 20.5859ZM22.5781 16.6016H26.5625V12.6172H22.5781V16.6016Z" fill="#231F20"/>
<path d="M28.5547 20.5859H20.5859C19.4836 20.5859 18.5938 19.6961 18.5938 18.5938V10.625C18.5938 9.52266 19.4836 8.63281 20.5859 8.63281H28.5547C29.657 8.63281 30.5469 9.52266 30.5469 10.625V18.5938C30.5469 19.6961 29.657 20.5859 28.5547 20.5859ZM22.5781 16.6016H26.5625V12.6172H22.5781V16.6016Z" fill="#E94236"/>
<path d="M45.8203 20.5859H37.8516C36.7492 20.5859 35.8594 19.6961 35.8594 18.5938V10.625C35.8594 9.52266 36.7492 8.63281 37.8516 8.63281H45.8203C46.9227 8.63281 47.8125 9.52266 47.8125 10.625V18.5938C47.8125 19.6961 46.9227 20.5859 45.8203 20.5859ZM39.8438 16.6016H43.8281V12.6172H39.8438V16.6016Z" fill="#231F20"/>
<path d="M45.8203 20.5859H37.8516C36.7492 20.5859 35.8594 19.6961 35.8594 18.5938V10.625C35.8594 9.52266 36.7492 8.63281 37.8516 8.63281H45.8203C46.9227 8.63281 47.8125 9.52266 47.8125 10.625V18.5938C47.8125 19.6961 46.9227 20.5859 45.8203 20.5859ZM39.8438 16.6016H43.8281V12.6172H39.8438V16.6016Z" fill="#E94236"/>
<path d="M28.5547 36.5234H20.5859C19.4836 36.5234 18.5938 35.6336 18.5938 34.5312V26.5625C18.5938 25.4602 19.4836 24.5703 20.5859 24.5703H28.5547C29.657 24.5703 30.5469 25.4602 30.5469 26.5625V34.5312C30.5469 35.6336 29.657 36.5234 28.5547 36.5234ZM22.5781 32.5391H26.5625V28.5547H22.5781V32.5391Z" fill="#231F20"/>
<path d="M28.5547 36.5234H20.5859C19.4836 36.5234 18.5938 35.6336 18.5938 34.5312V26.5625C18.5938 25.4602 19.4836 24.5703 20.5859 24.5703H28.5547C29.657 24.5703 30.5469 25.4602 30.5469 26.5625V34.5312C30.5469 35.6336 29.657 36.5234 28.5547 36.5234ZM22.5781 32.5391H26.5625V28.5547H22.5781V32.5391Z" fill="#E94236"/>
<path d="M70.3908 15.0941C69.9126 15.0941 69.4279 14.9215 69.0427 14.5695C68.2326 13.8258 68.1794 12.5641 68.9232 11.7539L76.2279 3.78515C76.9716 2.97499 78.2333 2.92187 79.0435 3.66562C79.8537 4.40937 79.9068 5.67108 79.163 6.48124L71.8583 14.45C71.4665 14.875 70.9287 15.0941 70.3908 15.0941Z" fill="#231F20"/>
<path d="M70.3908 15.0941C69.9126 15.0941 69.4279 14.9215 69.0427 14.5695C68.2326 13.8258 68.1794 12.5641 68.9232 11.7539L76.2279 3.78515C76.9716 2.97499 78.2333 2.92187 79.0435 3.66562C79.8537 4.40937 79.9068 5.67108 79.163 6.48124L71.8583 14.45C71.4665 14.875 70.9287 15.0941 70.3908 15.0941Z" fill="#E94236"/>
<path d="M75.0391 67.5551C74.468 67.5551 73.9035 67.3094 73.5051 66.8379L70.1848 62.8535C69.4809 62.0101 69.5938 60.7551 70.4371 60.0445C71.2871 59.3406 72.5356 59.4535 73.2461 60.2969L76.5664 64.2812C77.2703 65.1246 77.1574 66.3797 76.3141 67.0902C75.9422 67.4023 75.4906 67.5551 75.0391 67.5551Z" fill="#231F20"/>
<path d="M75.0391 67.5551C74.468 67.5551 73.9035 67.3094 73.5051 66.8379L70.1848 62.8535C69.4809 62.0101 69.5938 60.7551 70.4371 60.0445C71.2871 59.3406 72.5356 59.4535 73.2461 60.2969L76.5664 64.2812C77.2703 65.1246 77.1574 66.3797 76.3141 67.0902C75.9422 67.4023 75.4906 67.5551 75.0391 67.5551Z" fill="#E94236"/>
<path d="M82.3438 80.3516H55.7812V61.4391L62.2359 66.818C63.0992 67.5418 64.4141 66.9242 64.4141 65.7953V55.8543C64.4141 55.0309 65.1578 54.4066 65.968 54.5461L78.4523 56.7309C79.6277 56.9367 80.4578 55.6086 79.7539 54.6391L73.3656 45.8734C72.9141 45.2559 73.0801 44.3793 73.7242 43.9676L81.507 39.0137C82.357 38.4691 82.3172 37.2141 81.4273 36.7293L73.9633 32.6586C73.2328 32.2602 73.0469 31.2973 73.5715 30.6531L82.1844 20.0879C83.0012 19.0852 82.0516 17.6309 80.8098 17.9695L65.6094 22.0734C64.9387 22.2527 64.2348 21.8875 64.009 21.2234L62.0168 15.4594C61.7445 14.6758 60.8281 14.3305 60.1109 14.7355L55.7812 17.1926V9.29688C55.7812 4.53555 51.9098 0.664062 47.1484 0.664062H19.2578C14.4965 0.664062 10.625 4.53555 10.625 9.29688V56.4453H8.63281C7.53047 56.4453 6.64062 57.3352 6.64062 58.4375C6.64062 59.5398 7.53047 60.4297 8.63281 60.4297H28.5547C29.657 60.4297 30.5469 59.5398 30.5469 58.4375C30.5469 57.3352 29.657 56.4453 28.5547 56.4453H14.6094V9.29688C14.6094 6.73359 16.6945 4.64844 19.2578 4.64844H47.1484C49.7117 4.64844 51.7969 6.73359 51.7969 9.29688V19.4438V30.0355L56.6844 25.9648C57.116 25.6062 57.7734 25.9117 57.7734 26.4762V30.1418C57.7734 30.5867 58.2051 30.9055 58.6301 30.7793L63.252 29.3914C63.7566 29.2387 64.2281 29.7035 64.082 30.2082L62.8137 34.6707C62.7273 34.9828 62.8734 35.3082 63.159 35.4477L67.9336 37.7785C68.4117 38.0109 68.4316 38.6883 67.9668 38.9539L63.3051 41.6035C63.0395 41.7563 62.9133 42.0617 62.993 42.3539L64.102 46.4844C64.2348 46.9891 63.7699 47.4406 63.2719 47.2945L58.6301 45.9C58.2051 45.7672 57.7734 46.0859 57.7734 46.5309V50.1965C57.7734 50.7609 57.116 51.0664 56.6844 50.7078L51.7969 46.6371V80.3516H30.5469V66.4062C30.5469 65.3039 29.657 64.4141 28.5547 64.4141H8.63281C7.53047 64.4141 6.64062 65.3039 6.64062 66.4062V80.3516H2.65625C1.55391 80.3516 0.664062 81.2414 0.664062 82.3438C0.664062 83.4461 1.55391 84.3359 2.65625 84.3359H82.3438C83.4461 84.3359 84.3359 83.4461 84.3359 82.3438C84.3359 81.2414 83.4461 80.3516 82.3438 80.3516ZM16.6016 80.3516H10.625V68.3984H16.6016V80.3516ZM26.5625 80.3516H20.5859V68.3984H26.5625V80.3516Z" fill="#231F20"/>
<path d="M82.3438 80.3516H55.7812V61.4391L62.2359 66.818C63.0992 67.5418 64.4141 66.9242 64.4141 65.7953V55.8543C64.4141 55.0309 65.1578 54.4066 65.968 54.5461L78.4523 56.7309C79.6277 56.9367 80.4578 55.6086 79.7539 54.6391L73.3656 45.8734C72.9141 45.2559 73.0801 44.3793 73.7242 43.9676L81.507 39.0137C82.357 38.4691 82.3172 37.2141 81.4273 36.7293L73.9633 32.6586C73.2328 32.2602 73.0469 31.2973 73.5715 30.6531L82.1844 20.0879C83.0012 19.0852 82.0516 17.6309 80.8098 17.9695L65.6094 22.0734C64.9387 22.2527 64.2348 21.8875 64.009 21.2234L62.0168 15.4594C61.7445 14.6758 60.8281 14.3305 60.1109 14.7355L55.7812 17.1926V9.29688C55.7812 4.53555 51.9098 0.664062 47.1484 0.664062H19.2578C14.4965 0.664062 10.625 4.53555 10.625 9.29688V56.4453H8.63281C7.53047 56.4453 6.64062 57.3352 6.64062 58.4375C6.64062 59.5398 7.53047 60.4297 8.63281 60.4297H28.5547C29.657 60.4297 30.5469 59.5398 30.5469 58.4375C30.5469 57.3352 29.657 56.4453 28.5547 56.4453H14.6094V9.29688C14.6094 6.73359 16.6945 4.64844 19.2578 4.64844H47.1484C49.7117 4.64844 51.7969 6.73359 51.7969 9.29688V19.4438V30.0355L56.6844 25.9648C57.116 25.6062 57.7734 25.9117 57.7734 26.4762V30.1418C57.7734 30.5867 58.2051 30.9055 58.6301 30.7793L63.252 29.3914C63.7566 29.2387 64.2281 29.7035 64.082 30.2082L62.8137 34.6707C62.7273 34.9828 62.8734 35.3082 63.159 35.4477L67.9336 37.7785C68.4117 38.0109 68.4316 38.6883 67.9668 38.9539L63.3051 41.6035C63.0395 41.7563 62.9133 42.0617 62.993 42.3539L64.102 46.4844C64.2348 46.9891 63.7699 47.4406 63.2719 47.2945L58.6301 45.9C58.2051 45.7672 57.7734 46.0859 57.7734 46.5309V50.1965C57.7734 50.7609 57.116 51.0664 56.6844 50.7078L51.7969 46.6371V80.3516H30.5469V66.4062C30.5469 65.3039 29.657 64.4141 28.5547 64.4141H8.63281C7.53047 64.4141 6.64062 65.3039 6.64062 66.4062V80.3516H2.65625C1.55391 80.3516 0.664062 81.2414 0.664062 82.3438C0.664062 83.4461 1.55391 84.3359 2.65625 84.3359H82.3438C83.4461 84.3359 84.3359 83.4461 84.3359 82.3438C84.3359 81.2414 83.4461 80.3516 82.3438 80.3516ZM16.6016 80.3516H10.625V68.3984H16.6016V80.3516ZM26.5625 80.3516H20.5859V68.3984H26.5625V80.3516Z" fill="#E94236"/>
<path d="M45.8203 36.5234H37.8516C36.7492 36.5234 35.8594 35.6336 35.8594 34.5312V26.5625C35.8594 25.4602 36.7492 24.5703 37.8516 24.5703H45.8203C46.9227 24.5703 47.8125 25.4602 47.8125 26.5625V34.5312C47.8125 35.6336 46.9227 36.5234 45.8203 36.5234ZM39.8438 32.5391H43.8281V28.5547H39.8438V32.5391Z" fill="#231F20"/>
<path d="M45.8203 36.5234H37.8516C36.7492 36.5234 35.8594 35.6336 35.8594 34.5312V26.5625C35.8594 25.4602 36.7492 24.5703 37.8516 24.5703H45.8203C46.9227 24.5703 47.8125 25.4602 47.8125 26.5625V34.5312C47.8125 35.6336 46.9227 36.5234 45.8203 36.5234ZM39.8438 32.5391H43.8281V28.5547H39.8438V32.5391Z" fill="#E94236"/>
<path d="M45.8203 68.3984H37.8516C36.7492 68.3984 35.8594 67.5086 35.8594 66.4062V58.4375C35.8594 57.3352 36.7492 56.4453 37.8516 56.4453H45.8203C46.9227 56.4453 47.8125 57.3352 47.8125 58.4375V66.4062C47.8125 67.5086 46.9227 68.3984 45.8203 68.3984ZM39.8438 64.4141H43.8281V60.4297H39.8438V64.4141Z" fill="#231F20"/>
<path d="M45.8203 68.3984H37.8516C36.7492 68.3984 35.8594 67.5086 35.8594 66.4062V58.4375C35.8594 57.3352 36.7492 56.4453 37.8516 56.4453H45.8203C46.9227 56.4453 47.8125 57.3352 47.8125 58.4375V66.4062C47.8125 67.5086 46.9227 68.3984 45.8203 68.3984ZM39.8438 64.4141H43.8281V60.4297H39.8438V64.4141Z" fill="#E94236"/>
<path d="M45.8203 52.4609H37.8516C36.7492 52.4609 35.8594 51.5711 35.8594 50.4688V42.5C35.8594 41.3977 36.7492 40.5078 37.8516 40.5078H45.8203C46.9227 40.5078 47.8125 41.3977 47.8125 42.5V50.4688C47.8125 51.5711 46.9227 52.4609 45.8203 52.4609ZM39.8438 48.4766H43.8281V44.4922H39.8438V48.4766Z" fill="#231F20"/>
<path d="M45.8203 52.4609H37.8516C36.7492 52.4609 35.8594 51.5711 35.8594 50.4688V42.5C35.8594 41.3977 36.7492 40.5078 37.8516 40.5078H45.8203C46.9227 40.5078 47.8125 41.3977 47.8125 42.5V50.4688C47.8125 51.5711 46.9227 52.4609 45.8203 52.4609ZM39.8438 48.4766H43.8281V44.4922H39.8438V48.4766Z" fill="#E94236"/>
</g>
<defs>
<clipPath id="clip0_2232_34560">
<rect width="85" height="85" fill="white"/>
</clipPath>
</defs>
</svg>
